<svg width="256" height="256" viewBox="0 0 256 256" fill="none" xmlns="http://www.w3.org/2000/svg">
<rect width="256" height="256" rx="128" fill="url(#paint0_linear_9_20)"/>
<path d="M137.223 73.277L148.284 70.3133C149.012 70.1181 149.376 70.0205 149.663 69.8791C150.841 69.2984 151.552 68.0656 151.466 66.7555C151.446 66.4365 151.348 66.0723 151.153 65.3439C150.567 63.1585 150.274 62.0659 149.85 61.2057C148.108 57.6732 144.41 55.5379 140.48 55.7955C140.08 55.8217 139.656 55.8881 139.139 55.9993C139.201 56.2664 139.218 56.5486 139.184 56.8366L137.223 73.277Z" fill="white"/>
<path d="M118.75 61.4242L134.228 57.277L132.279 73.6172C132.239 73.9511 132.269 74.2771 132.357 74.581L116.843 78.7379L118.803 62.2974C118.839 61.9965 118.819 61.7019 118.75 61.4242Z" fill="white"/>
<path fill-rule="evenodd" clip-rule="evenodd" d="M140.984 82.7063H102.032V98.9364C102.032 108.118 102.032 112.708 104.884 115.56C107.737 118.413 112.327 118.413 121.508 118.413H134.492C143.673 118.413 148.264 118.413 151.116 115.56C153.968 112.708 153.968 108.118 153.968 98.9364V95.6904C153.968 89.5696 153.968 86.5093 152.067 84.6078C150.166 82.7063 147.105 82.7063 140.984 82.7063ZM130.624 96.4158C133.203 98.2645 134.492 99.1888 134.492 100.559C134.492 101.93 133.203 102.854 130.624 104.703C128.01 106.577 126.703 107.514 125.729 106.826C124.754 106.138 124.754 104.278 124.754 100.559C124.754 96.8403 124.754 94.9808 125.729 94.2929C126.703 93.6049 128.01 94.5419 130.624 96.4158Z" fill="white"/>
<path d="M111.899 79.0781C111.859 79.4119 111.888 79.738 111.976 80.0418L102.036 82.7052C100.466 76.8444 99.6808 73.914 100.356 71.3936C100.799 69.7425 101.668 68.2369 102.876 67.0282C104.722 65.1831 107.652 64.3979 113.513 62.8275L113.847 62.7378L111.899 79.0781Z" fill="white"/>
<path d="M50.4672 169.904V158.051H39.5568V169.904H32.543V141.111H39.5568V152.39H50.4672V141.111H57.4809V169.904H50.4672ZM72.6342 152.308C70.3373 152.308 68.5736 153.703 68.1635 156.246H76.941C76.941 153.744 74.9722 152.308 72.6342 152.308ZM83.5856 162.316C82.4782 166.787 78.4175 170.233 72.7163 170.233C65.9896 170.233 61.1497 165.721 61.1497 158.461C61.1497 151.201 65.9076 146.689 72.7163 146.689C79.4019 146.689 84.1188 151.119 84.1188 158.092C84.1188 158.748 84.0778 159.445 83.9958 160.143H68.1224C68.3685 163.137 70.2143 164.531 72.4702 164.531C74.439 164.531 75.5464 163.547 76.1206 162.316H83.5856ZM94.8327 150.258C96.1042 148.207 98.6062 146.689 101.888 146.689C107.548 146.689 111.978 151.201 111.978 158.42C111.978 165.639 107.507 170.233 101.888 170.233C98.5242 170.233 96.1042 168.715 94.8327 166.705V169.904H87.8189V139.552H94.8327V150.258ZM104.841 158.42C104.841 154.769 102.462 152.801 99.7957 152.801C97.1707 152.801 94.7917 154.81 94.7917 158.461C94.7917 162.111 97.1707 164.121 99.7957 164.121C102.462 164.121 104.841 162.07 104.841 158.42ZM145.267 161.332C145.267 166.172 141.494 170.192 134.767 170.192C128.574 170.192 123.734 167.115 123.529 161.291H130.994C131.199 163.506 132.593 164.572 134.562 164.572C136.613 164.572 137.926 163.547 137.926 161.865C137.926 156.533 123.529 159.404 123.611 149.191C123.611 143.736 128.082 140.701 134.111 140.701C140.387 140.701 144.611 143.818 144.898 149.314H137.31C137.187 147.468 135.875 146.361 133.988 146.32C132.306 146.279 131.035 147.14 131.035 148.945C131.035 153.949 145.267 151.693 145.267 161.332ZM172.184 147.017V169.904H165.17V166.787C163.775 168.756 161.314 170.151 158.238 170.151C152.947 170.151 149.379 166.5 149.379 160.389V147.017H156.351V159.445C156.351 162.562 158.115 164.285 160.74 164.285C163.447 164.285 165.17 162.562 165.17 159.445V147.017H172.184ZM184.236 150.258C185.507 148.207 188.009 146.689 191.29 146.689C196.951 146.689 201.38 151.201 201.38 158.42C201.38 165.639 196.91 170.233 191.29 170.233C187.927 170.233 185.507 168.715 184.236 166.705V169.904H177.222V139.552H184.236V150.258ZM194.244 158.42C194.244 154.769 191.865 152.801 189.199 152.801C186.573 152.801 184.195 154.81 184.195 158.461C184.195 162.111 186.573 164.121 189.199 164.121C191.865 164.121 194.244 162.07 194.244 158.42ZM223.64 163.26C223.64 167.238 220.113 170.233 214.371 170.233C208.259 170.233 204.158 166.828 203.829 162.398H210.761C210.925 163.998 212.361 165.064 214.289 165.064C216.093 165.064 217.037 164.244 217.037 163.219C217.037 159.527 204.568 162.193 204.568 153.785C204.568 149.888 207.89 146.689 213.878 146.689C219.785 146.689 223.066 149.97 223.517 154.482H217.037C216.832 152.924 215.642 151.898 213.673 151.898C212.033 151.898 211.13 152.555 211.13 153.662C211.13 157.312 223.517 154.728 223.64 163.26Z" fill="white"/>
<path d="M37.1432 198.69C36.0406 198.69 35.0498 198.498 34.1709 198.115C33.3079 197.715 32.6288 197.172 32.1334 196.485C31.638 195.781 31.3823 194.974 31.3663 194.064H33.6915C33.7714 194.847 34.091 195.51 34.6503 196.053C35.2256 196.58 36.0566 196.844 37.1432 196.844C38.182 196.844 38.997 196.588 39.5882 196.077C40.1955 195.55 40.4991 194.879 40.4991 194.064C40.4991 193.424 40.3233 192.905 39.9718 192.505C39.6202 192.106 39.1807 191.802 38.6534 191.595C38.126 191.387 37.4149 191.163 36.52 190.923C35.4174 190.636 34.5304 190.348 33.8593 190.06C33.2041 189.773 32.6368 189.325 32.1574 188.718C31.6939 188.095 31.4622 187.264 31.4622 186.225C31.4622 185.314 31.6939 184.507 32.1574 183.804C32.6208 183.101 33.268 182.558 34.099 182.174C34.9459 181.791 35.9127 181.599 36.9994 181.599C38.5655 181.599 39.8439 181.99 40.8347 182.773C41.8415 183.556 42.4088 184.595 42.5366 185.89H40.1396C40.0597 185.25 39.7241 184.691 39.1328 184.212C38.5415 183.716 37.7585 183.469 36.7837 183.469C35.8728 183.469 35.1297 183.708 34.5544 184.188C33.9791 184.651 33.6915 185.306 33.6915 186.153C33.6915 186.761 33.8593 187.256 34.1949 187.639C34.5464 188.023 34.9699 188.319 35.4653 188.526C35.9767 188.718 36.6878 188.942 37.5987 189.198C38.7013 189.501 39.5882 189.805 40.2594 190.108C40.9306 190.396 41.5059 190.852 41.9853 191.475C42.4647 192.082 42.7044 192.913 42.7044 193.968C42.7044 194.783 42.4887 195.55 42.0572 196.269C41.6257 196.988 40.9865 197.571 40.1396 198.019C39.2926 198.466 38.2938 198.69 37.1432 198.69ZM48.5751 187.184V194.927C48.5751 195.566 48.711 196.021 48.9826 196.293C49.2543 196.549 49.7257 196.676 50.3969 196.676H52.0029V198.522H50.0374C48.8228 198.522 47.912 198.242 47.3047 197.683C46.6974 197.124 46.3938 196.205 46.3938 194.927V187.184H44.6919V185.386H46.3938V182.078H48.5751V185.386H52.0029V187.184H48.5751ZM56.8272 187.52C57.2107 186.769 57.7541 186.185 58.4572 185.77C59.1763 185.354 60.0473 185.147 61.07 185.147V187.4H60.4947C58.0497 187.4 56.8272 188.726 56.8272 191.379V198.522H54.6459V185.386H56.8272V187.52ZM75.5733 191.451C75.5733 191.866 75.5494 192.306 75.5014 192.769H65.0023C65.0822 194.064 65.5217 195.078 66.3207 195.813C67.1357 196.533 68.1185 196.892 69.2691 196.892C70.2119 196.892 70.9949 196.676 71.6182 196.245C72.2574 195.797 72.7048 195.206 72.9605 194.471H75.3097C74.9581 195.734 74.2549 196.764 73.2002 197.563C72.1455 198.346 70.8351 198.738 69.2691 198.738C68.0226 198.738 66.904 198.458 65.9132 197.899C64.9384 197.34 64.1713 196.549 63.612 195.526C63.0527 194.487 62.773 193.289 62.773 191.93C62.773 190.572 63.0447 189.381 63.588 188.359C64.1314 187.336 64.8904 186.553 65.8652 186.009C66.856 185.45 67.9906 185.17 69.2691 185.17C70.5155 185.17 71.6182 185.442 72.577 185.985C73.5358 186.529 74.2709 187.28 74.7823 188.239C75.3097 189.182 75.5733 190.252 75.5733 191.451ZM73.3201 190.995C73.3201 190.164 73.1363 189.453 72.7688 188.862C72.4012 188.255 71.8978 187.799 71.2586 187.496C70.6354 187.176 69.9402 187.016 69.1732 187.016C68.0705 187.016 67.1277 187.368 66.3447 188.071C65.5776 188.774 65.1381 189.749 65.0263 190.995H73.3201ZM94.2492 185.147C95.272 185.147 96.1829 185.362 96.9819 185.794C97.7809 186.209 98.4121 186.84 98.8755 187.687C99.339 188.534 99.5707 189.565 99.5707 190.78V198.522H97.4133V191.091C97.4133 189.781 97.0857 188.782 96.4305 188.095C95.7913 187.392 94.9204 187.04 93.8178 187.04C92.6831 187.04 91.7803 187.408 91.1091 188.143C90.4379 188.862 90.1023 189.909 90.1023 191.283V198.522H87.945V191.091C87.945 189.781 87.6174 188.782 86.9622 188.095C86.323 187.392 85.452 187.04 84.3494 187.04C83.2148 187.04 82.3119 187.408 81.6407 188.143C80.9695 188.862 80.6339 189.909 80.6339 191.283V198.522H78.4526V185.386H80.6339V187.28C81.0654 186.593 81.6407 186.065 82.3598 185.698C83.0949 185.33 83.9019 185.147 84.7808 185.147C85.8835 185.147 86.8583 185.394 87.7053 185.89C88.5522 186.385 89.1834 187.112 89.5989 188.071C89.9665 187.144 90.5737 186.425 91.4207 185.914C92.2677 185.402 93.2105 185.147 94.2492 185.147ZM104.275 183.253C103.86 183.253 103.508 183.109 103.221 182.821C102.933 182.534 102.789 182.182 102.789 181.767C102.789 181.351 102.933 181 103.221 180.712C103.508 180.424 103.86 180.28 104.275 180.28C104.675 180.28 105.011 180.424 105.282 180.712C105.57 181 105.714 181.351 105.714 181.767C105.714 182.182 105.57 182.534 105.282 182.821C105.011 183.109 104.675 183.253 104.275 183.253ZM105.33 185.386V198.522H103.149V185.386H105.33ZM114.777 198.738C113.546 198.738 112.428 198.458 111.421 197.899C110.43 197.34 109.647 196.549 109.072 195.526C108.513 194.487 108.233 193.289 108.233 191.93C108.233 190.588 108.521 189.405 109.096 188.383C109.687 187.344 110.486 186.553 111.493 186.009C112.5 185.45 113.626 185.17 114.873 185.17C116.119 185.17 117.246 185.45 118.253 186.009C119.259 186.553 120.05 187.336 120.626 188.359C121.217 189.381 121.513 190.572 121.513 191.93C121.513 193.289 121.209 194.487 120.602 195.526C120.01 196.549 119.203 197.34 118.181 197.899C117.158 198.458 116.023 198.738 114.777 198.738ZM114.777 196.82C115.56 196.82 116.295 196.636 116.982 196.269C117.669 195.901 118.221 195.35 118.636 194.615C119.068 193.88 119.283 192.985 119.283 191.93C119.283 190.875 119.076 189.981 118.66 189.245C118.245 188.51 117.701 187.967 117.03 187.615C116.359 187.248 115.632 187.064 114.849 187.064C114.05 187.064 113.315 187.248 112.643 187.615C111.988 187.967 111.461 188.51 111.061 189.245C110.662 189.981 110.462 190.875 110.462 191.93C110.462 193.001 110.654 193.904 111.037 194.639C111.437 195.374 111.964 195.925 112.619 196.293C113.275 196.644 113.994 196.82 114.777 196.82ZM140.647 194.807H133.36L132.018 198.522H129.717L135.757 181.91H138.274L144.291 198.522H141.989L140.647 194.807ZM140.024 193.033L137.004 184.595L133.983 193.033H140.024ZM146.108 191.906C146.108 190.564 146.38 189.389 146.923 188.383C147.467 187.36 148.21 186.569 149.153 186.009C150.111 185.45 151.182 185.17 152.365 185.17C153.387 185.17 154.338 185.41 155.217 185.89C156.096 186.353 156.767 186.968 157.231 187.735V180.784H159.436V198.522H157.231V196.053C156.799 196.836 156.16 197.483 155.313 197.995C154.466 198.49 153.475 198.738 152.341 198.738C151.174 198.738 150.111 198.45 149.153 197.875C148.21 197.3 147.467 196.493 146.923 195.454C146.38 194.415 146.108 193.233 146.108 191.906ZM157.231 191.93C157.231 190.939 157.031 190.076 156.631 189.341C156.232 188.606 155.689 188.047 155.001 187.663C154.33 187.264 153.587 187.064 152.772 187.064C151.957 187.064 151.214 187.256 150.543 187.639C149.872 188.023 149.336 188.582 148.937 189.317C148.537 190.052 148.338 190.915 148.338 191.906C148.338 192.913 148.537 193.792 148.937 194.543C149.336 195.278 149.872 195.845 150.543 196.245C151.214 196.628 151.957 196.82 152.772 196.82C153.587 196.82 154.33 196.628 155.001 196.245C155.689 195.845 156.232 195.278 156.631 194.543C157.031 193.792 157.231 192.921 157.231 191.93ZM162.307 191.906C162.307 190.564 162.579 189.389 163.122 188.383C163.665 187.36 164.409 186.569 165.351 186.009C166.31 185.45 167.381 185.17 168.563 185.17C169.586 185.17 170.537 185.41 171.416 185.89C172.295 186.353 172.966 186.968 173.43 187.735V180.784H175.635V198.522H173.43V196.053C172.998 196.836 172.359 197.483 171.512 197.995C170.665 198.49 169.674 198.738 168.54 198.738C167.373 198.738 166.31 198.45 165.351 197.875C164.409 197.3 163.665 196.493 163.122 195.454C162.579 194.415 162.307 193.233 162.307 191.906ZM173.43 191.93C173.43 190.939 173.23 190.076 172.83 189.341C172.431 188.606 171.887 188.047 171.2 187.663C170.529 187.264 169.786 187.064 168.971 187.064C168.156 187.064 167.413 187.256 166.742 187.639C166.071 188.023 165.535 188.582 165.136 189.317C164.736 190.052 164.536 190.915 164.536 191.906C164.536 192.913 164.736 193.792 165.136 194.543C165.535 195.278 166.071 195.845 166.742 196.245C167.413 196.628 168.156 196.82 168.971 196.82C169.786 196.82 170.529 196.628 171.2 196.245C171.887 195.845 172.431 195.278 172.83 194.543C173.23 193.792 173.43 192.921 173.43 191.93ZM188.43 188.814V190.66H178.866V188.814H188.43ZM198.253 198.738C197.022 198.738 195.903 198.458 194.897 197.899C193.906 197.34 193.123 196.549 192.548 195.526C191.988 194.487 191.709 193.289 191.709 191.93C191.709 190.588 191.996 189.405 192.572 188.383C193.163 187.344 193.962 186.553 194.969 186.009C195.975 185.45 197.102 185.17 198.348 185.17C199.595 185.17 200.722 185.45 201.728 186.009C202.735 186.553 203.526 187.336 204.101 188.359C204.693 189.381 204.988 190.572 204.988 191.93C204.988 193.289 204.685 194.487 204.077 195.526C203.486 196.549 202.679 197.34 201.656 197.899C200.634 198.458 199.499 198.738 198.253 198.738ZM198.253 196.82C199.036 196.82 199.771 196.636 200.458 196.269C201.145 195.901 201.696 195.35 202.112 194.615C202.543 193.88 202.759 192.985 202.759 191.93C202.759 190.875 202.551 189.981 202.136 189.245C201.72 188.51 201.177 187.967 200.506 187.615C199.835 187.248 199.107 187.064 198.324 187.064C197.525 187.064 196.79 187.248 196.119 187.615C195.464 187.967 194.937 188.51 194.537 189.245C194.138 189.981 193.938 190.875 193.938 191.93C193.938 193.001 194.13 193.904 194.513 194.639C194.913 195.374 195.44 195.925 196.095 196.293C196.75 196.644 197.47 196.82 198.253 196.82ZM214.256 185.147C215.855 185.147 217.149 185.634 218.14 186.609C219.13 187.568 219.626 188.958 219.626 190.78V198.522H217.469V191.091C217.469 189.781 217.141 188.782 216.486 188.095C215.831 187.392 214.936 187.04 213.801 187.04C212.65 187.04 211.732 187.4 211.044 188.119C210.373 188.838 210.038 189.885 210.038 191.259V198.522H207.856V185.386H210.038V187.256C210.469 186.585 211.052 186.065 211.788 185.698C212.539 185.33 213.362 185.147 214.256 185.147Z" fill="white"/>
<defs>
<linearGradient id="paint0_linear_9_20" x1="61" y1="26" x2="228" y2="222" gradientUnits="userSpaceOnUse">
<stop stop-color="#00E79D"/>
<stop offset="1" stop-color="#00A0FA"/>
</linearGradient>
</defs>
</svg>
